# xmcd CD database file
#
# Track frame offsets:
#	150
#	6472
#	12910
#	22439
#	25511
#	33098
#	45183
#	53543
#	65036
#	70952
#	85763
#	94995
#	110148
#	122718
#	128635
#	129954
#	144973
#	156703
#	167702
#	176477
#	195472
#	200214
#	206367
#	217047
#	223681
#	237280
#	249413
#	256219
#	268338
#	276634
#	282542
#	293525
#	300368
#	325038
#
# Disc length: 4649 seconds
#
# Revision: 0
# Processed by: cddbd v1.5.2PL0 Copyright (c) Steve Scherf et al.
# Submitted via: CDex 1.70beta2
#
DISCID=fe122722
DTITLE=Rockman - Oto sae areba...  jazzy mix
DYEAR=1900
DGENRE=Jazz
TTITLE0=INTRO (DOLPHIN DANCE - AHMAD JAMAL , DRIFTING - LUSHLIFE)
TTITLE1=IN ALL THE WRONG PLACES - KERO ONE
TTITLE2=REPARATONS - CLIMBERS
TTITLE3=IT'S GETTIN' HOT REMIX (INST) - ARTIFACTS
TTITLE4=THE FIELD - SOUND PROVIDERS
TTITLE5=SKINZ - DIF PRODUCTIONS
TTITLE6=NO FOUNDATION - LUSHLIFE
TTITLE7=FORCE BE WITH YOU - JAZZ LIBERATORZ feat. T. LOVE
TTITLE8=BLUE AVENUE_JAZZ LIBERATORZ
TTITLE9=MR. LAWRENCE - VOLTA MASTERS
TTITLE10=MUSICAL JOURNEY - V.A.
TTITLE11=ALWAYS SOMETHING - JAZZ LIBERATORZ
TTITLE12=WRECASTOW REMIX#2 - CUT-EX
TTITLE13=THAT'S REALITY - JAZZ LIBERATORZ
TTITLE14=77STEPS TO HEAVEN (INTRO) - JAZZ LIBERATOSZ
TTITLE15=REMEMBER - CRADLE feat. DIZZY of UGLY DUCKLING
TTITLE16=TRIP TO BRAZIL - PRESTO
TTITLE17=REMINISCE - PRESTO
TTITLE18=50 YEARS - ALL NATURAL
TTITLE19=I CAN (DJ S.H.U. REMIX) - NAS
TTITLE20=HIGH LIFE (DJ CAM REMIX) - CYPRESS HILL
TTITLE21=SPRING BREEZE - JOHN FORTY
TTITLE22=JAZZ MOVE_ CHANNEL TWO
TTITLE23=FLYIN HIGH_PRESTO
TTITLE24=ANAMARIA - DJ GRIEVOUS
TTITLE25=FLY FLY AWAY - KERO ONE
TTITLE26=ORDER OF OPERATIONS (SHIN-SKI'S IN A WRONG ORDER) - LUSHLIFE
TTITLE27=HEART - SHINSIGHT TRIO feat Edo G
TTITLE28=RECALL MATH - SUPERSCI
TTITLE29=IT WAS ONLY A SONG - JAZZ LIBERATORZ
TTITLE30=LOOP PRISONER - JAZZ LIBERATORZ
TTITLE31=SLOW DOWN - JAZZ LIBERATORZ
TTITLE32=MEMORY OF THE FUTUER (LISTENING) - DJ NOZAWA
TTITLE33=LIFT BEHIND - THAWFOR
EXTD=
EXTT0=
EXTT1=
EXTT2=
EXTT3=
EXTT4=
EXTT5=
EXTT6=
EXTT7=
EXTT8=
EXTT9=
EXTT10=
EXTT11=
EXTT12=
EXTT13=
EXTT14=
EXTT15=
EXTT16=
EXTT17=
EXTT18=
EXTT19=
EXTT20=
EXTT21=
EXTT22=
EXTT23=
EXTT24=
EXTT25=
EXTT26=
EXTT27=
EXTT28=
EXTT29=
EXTT30=
EXTT31=
EXTT32=
EXTT33=
PLAYORDER=
